# xmcd
#
# Track frame offsets: 
#        208
#        12826
#        24548
#        37359
#        48598
#        62203
#        72907
#        85454
#        96239
#        107160
#        118929
#        128912
#        139817
#        153629
#        163392
#        176324
#        189928
#        202681
#        216416
#        227426
#        240737
#        254388
#
# Disc length: 3533 seconds
#
# Revision: 2
# Processed by: cddbd v1.5.2PL0 Copyright (c) Steve Scherf et al.
# Submitted via: ExactAudioCopyFreeDBPlugin 1.0
#
DISCID=430dcb16
DTITLE=Arthur Conley - Sweet Soul Music:  The Best of Arthur Conley
DYEAR=1995
DGENRE=Soul
TTITLE0=I'm a Lonely Stranger
TTITLE1=Who's Fooling Who
TTITLE2=In the Same Old Way
TTITLE3=I Can't Stop (No, No, No,)
TTITLE4=Take Me (Just as I Am)
TTITLE5=Sweet Soul Music
TTITLE6=Let's Go Steady
TTITLE7=Wholesale Love
TTITLE8=Shake, Rattle and Roll
TTITLE9=Whole Lotta Woman
TTITLE10=People Sure Act Funny
TTITLE11=Funky Street
TTITLE12=Get Yourself Another Fool
TTITLE13=Run On
TTITLE14=Otis Sleep On
TTITLE15=Put Our Love Together
TTITLE16=Aunt Dora's Love Soul Shack
TTITLE17=Ob-La-Di, Ob-La-Da
TTITLE18=Star Review
TTITLE19=They Call the Wind Maria
TTITLE20=God Bless
TTITLE21=Nobody's Fault But Mine
EXTD=
EXTT0=
EXTT1=
EXTT2=
EXTT3=
EXTT4=
EXTT5=
EXTT6=
EXTT7=
EXTT8=
EXTT9=
EXTT10=
EXTT11=
EXTT12=
EXTT13=
EXTT14=
EXTT15=
EXTT16=
EXTT17=
EXTT18=
EXTT19=
EXTT20=
EXTT21=
PLAYORDER=
